<svg width="50" height="50" viewBox="0 0 50 50" fill="none" xmlns="http://www.w3.org/2000/svg">
<g id="pen">
<path id="Vector" d="M25.0002 16.6669L8.3335 33.3335V41.6669L16.6668 41.6668L33.3335 25.0002M25.0002 16.6669L30.9765 10.6905L30.9801 10.687C31.8027 9.86429 32.2148 9.45223 32.6898 9.29789C33.1082 9.16193 33.559 9.16193 33.9774 9.29789C34.4521 9.45212 34.8637 9.86371 35.6852 10.6852L39.3098 14.3098C40.1348 15.1348 40.5475 15.5475 40.7021 16.0232C40.838 16.4416 40.838 16.8924 40.702 17.3108C40.5476 17.7861 40.1355 18.1982 39.3116 19.0221L39.3098 19.0238L33.3335 25.0002M25.0002 16.6669L33.3335 25.0002" stroke="white" stroke-width="3" stroke-linecap="round" stroke-linejoin="round"/>
</g>
</svg>
